<?xml version="1.0" encoding="utf-8"?>
<!-- Generator: Adobe Illustrator 19.0.0, SVG Export Plug-In . SVG Version: 6.00 Build 0)  -->
<svg version="1.1" id="Layer_1" xmlns="http://www.w3.org/2000/svg" xmlns:xlink="http://www.w3.org/1999/xlink" x="0px" y="0px"
	 viewBox="0 0 612 792" style="enable-background:new 0 0 612 792;" xml:space="preserve">
<style type="text/css">
	.st0{fill:#585858;}
	.st1{fill:#4C4C4C;}
	.st2{fill:#F6F6F6;}
	.st3{fill:#F8F8F8;}
	.st4{fill:#F1F1F1;}
	.st5{fill:#FEFEFE;}
	.st6{display:none;}
	.st7{display:inline;}
	.st8{display:inline;fill:#585858;}
	.st9{display:inline;fill:#4C4C4C;}
	.st10{display:inline;fill:#F1F1F1;}
	.st11{display:inline;fill:#F6F6F6;}
	.st12{display:inline;fill:#F8F8F8;}
	.st13{display:inline;fill:#FEFEFE;}
</style>
<g>
	<path d="M250,27.8c-45.4,0-90.8-0.1-136.3,0.1c-8.2,0-13.9-2.7-17.1-10.4c0-2.3,0-4.6,0-7c0.7-6.3,4.2-9.8,10.5-10.5
		c152.2,0,304.4,0,456.7,0c7,1.7,9.4,4.2,10,10.3c-0.2,2.4,0.4,4.8-0.3,7.2c-2.3,6.9-6.9,10.2-14.3,10.2c-46.4,0-92.8,0-139.1,0
		c-1.8,0.6-3.7,0.5-5.6,0.5c-52.9,0-105.9,0-158.8,0C253.7,28.2,251.8,28.4,250,27.8z"/>
	<path d="M96.7,773.9c3.4-7.7,9.5-10.2,17.7-10.2c43.2,0.2,86.4,0.1,129.6,0.1c1.6,0,3.2-0.2,4.7-0.3c55.5-1.1,111-0.2,166.4-0.5
		c3.7,0,7.5-0.1,11.2,0.5c1.6,0.1,3.2,0.2,4.8,0.2c42.4,0,84.8,0,127.1,0c8.3,0,13.4,3.6,15.2,10.7c0.5,1.9,0.1,3.8,0.2,5.7
		c-0.3,7.1-2.1,9.3-9.1,11.1c-153.1,0-306.2,0-459.3,0c-5.2-1.2-8-4.4-8.7-9.6C96.7,779.1,96.7,776.5,96.7,773.9z"/>
	<path class="st0" d="M573.4,9.6c0.3,0,0.6,0,0.8,0c0,2.6,0,5.2,0,7.8c-0.3,0-0.5,0-0.8,0.1C573.5,14.9,573.4,12.2,573.4,9.6z"/>
	<path class="st1" d="M574.3,780.9c-0.2,0.1-0.5,0.1-0.7,0.2c0-2.2,0-4.4,0-6.5c0.2,0.1,0.5,0.1,0.7,0.2
		C574.3,776.8,574.3,778.8,574.3,780.9z"/>
	<path class="st2" d="M250.1,762.6c2.2-1.1,4.4,0.1,6.6,0.1c54-0.1,107.9-0.1,161.9,0c2.2,0,4.4-1.2,6.6-0.1c0.4,0.3,0.8,0.7,1.2,1
		c-3.1,1-6.3,0.4-9.5,0.4c-54.6,0.1-109.3,0.1-163.9,0.1c-1.4,0-2.8-0.4-4.3-0.5C249.2,763.2,250.5,764,250.1,762.6z"/>
	<path class="st3" d="M420,28.8c-56.7,0-113.3,0-170,0c0-0.3,0-0.7,0-1c1.1-0.1,2.3-0.3,3.4-0.3c54.4,0,108.8,0,163.2,0
		c1.1,0,2.3,0.2,3.4,0.3C420,28.1,420,28.4,420,28.8z"/>
	<path class="st4" d="M541.9,640.3c-0.9-5.8-1.4-11.7-0.4-17.3c1.5-8.9-0.3-17.4-2.2-25.7c-1.9-8.2-3.5-16.5-6.3-24.6
		c-2.6-7.8-5.4-15.6-8.6-23.2c-3.3-7.9-7.3-15.4-11.2-23c-5.5-10.8-11.8-21-18.8-30.9c-8-11.2-17.3-21.2-26.9-31.1
		c-12.8-13.2-26.9-24.8-42-35.1c-17.3-11.9-35-23-54.7-30.8c-1.9-0.7-3.5-2.3-6-3.9c7.6-2.5,13.8-6.4,20.3-9.7
		c19.3-9.7,37.6-21.3,54.7-34.7c13.5-10.6,25.9-22.1,37.5-34.8c15.7-17.1,27.9-36.5,38.6-56.8c8.4-15.8,14.2-32.6,19.5-49.6
		c1.5-4.9,1.5-10.3,3-15.2c2.3-7.7,3.2-15.5,3.5-23.3c0.4-13.1-0.3-25.9-3.5-38.9c-3-12.1-7.5-23.3-13.5-33.9
		c-8-14-19.2-25.5-31.8-35.4c-16.8-13.1-35.9-22.3-55.9-29.5c-2.6-0.9-5.7-0.8-8-2.2c-3-1.7-5.9-2.2-9.1-2c-1.5-1.2-3.3-0.8-5-0.8
		c-53.3,0-106.6,0-159.9,0c-1.7,0-3.5-0.3-5,0.8c-4-0.3-7.4,1.9-11,2.7c-11.8,2.5-22.4,7.8-32.9,13.1c-9.3,4.7-18.1,10.3-26.5,16.6
		c-11.7,8.7-21.6,18.7-30,30.4c-7.7,10.7-12.7,22.7-16.5,35.6c-2.7,9.1-3.7,18.3-4.8,27.5c-1.2,10.3,0.3,20.8,1.6,31.1
		c0.6,4.6,2.2,9.2,2.8,13.7c1.3,9.9,5.2,19.1,8.1,28.4c1.8,6,5,11.8,7.3,17.6c3.5,8.9,8.2,17.1,12.7,25.4
		c7.5,13.9,16.7,26.6,26.9,38.8c11.1,13.3,23.5,25.2,36.8,36.1c13.1,10.7,27.1,20.3,41.7,28.9c7.6,4.5,15.3,9,23.6,12.2
		c5.2,2,9.9,5.4,15.2,8.3c-2.6,1.4-4.5,2.7-6.6,3.5c-9,3.4-17.2,8.5-25.7,13.1c-4.8,2.6-9.2,6-14,8.5c-12,6.5-22.4,15-33.1,23.1
		c-10.8,8.2-20.4,17.9-29.8,27.8c-6.2,6.4-11.8,13.4-17.2,20.4c-16.1,21.3-28,44.8-37.7,69.6c-4.4,11.2-6.8,23-9.6,34.6
		c-2.5,10.3-2.2,20.9-3.3,31.3c-0.6,6.1,1.1,12.1,1.2,18.2c0,9.2,3.9,17.9,6.6,26.7c1.8,5.9,4.8,11.6,7.8,17.1
		c5.6,10.5,13.3,19.5,21.6,27.8c5.7,5.6,12,10.8,18.5,15.6c8.2,6.1,17.5,10.4,26.3,15.5c5.7,3.3,12.1,5.5,18.2,7.9
		c7.1,2.8,14.2,5.2,21.7,6.6c1.9,0.5,3.9,0.9,5.9,0.9c54.6,0,109.1,0,163.7,0c1.9,0,3.8,0,5.5-0.9c10.5-2,20.3-6.4,30.1-10.4
		c7.9-3.3,15.4-7.7,22.8-12.2c8.6-5.2,16.6-11,24.1-17.5c15.1-13.2,25.4-29.9,33-48.5c2.1-5.3,2.6-10.9,4.3-16.2
		C541.4,652.1,542.8,646.1,541.9,640.3z M335.9,383.8c-0.7,0.5-1.3,0.6-2,0c-5.5-4.4-12.4-5.5-18.6-8.4c-7.8-3.6-15.4-7.3-23-11.3
		c-10.1-5.4-20.5-10.6-29.8-17.1c-18.7-13.1-36.6-27.4-52.1-44.3c-4.6-5-9.8-9.9-13.6-15.3c-7.4-10.7-14.3-21.9-20.6-33.4
		c-5.4-9.9-10-20.1-14.3-30.4c-3.5-8.5-6.4-17.5-7.9-26.8c-0.7-4.2-3.1-8-3-13.1c-0.8-7.1-1.6-14.8-1.4-22.6
		c0.4-15.8,3.2-30.9,10.4-45.2c5.5-11.1,13.2-20.5,21.7-29.1c3.9-4,8.8-7.5,13.7-10.7c11.2-7.3,22.9-13.6,35.3-18.7
		c7-2.9,14.2-5.6,21.4-7.7c12-3.6,24.4-5.8,36.8-7.9c3.6-0.6,7.3-1.9,10.8-2.1c5.8-0.4,11.7-0.5,17.6-0.6c8.1-0.2,16.2-0.8,24.3-0.6
		c6.9,0.2,13.8,0.2,20.7,0.5c6.6,0.2,13.6,1.6,20.4,3.1c4.8,1.1,9.7,1.9,14.8,2.2c4.6,0.2,9.1,2.8,13.7,3.9
		c16.6,4.1,32.4,10.4,47.4,18.4c9.5,5.1,18.3,11.2,26.5,18.2c9.1,7.9,16.7,17.1,22.7,27.3c3.3,5.7,6.8,11.7,7.8,18.7
		c0.9,6.3,3.2,12.2,4.1,18.6c1.1,7.8,0.4,15.6,0.7,23.3c0.3,8.2-3.1,16.6-4.7,24.9c-2.3,12.1-6.9,23.4-11.3,34.7
		c-4.8,12.1-11.7,23.4-18.2,34.8c-11.6,20.4-27.4,37.3-44.4,53.1c-8.5,7.8-17.8,14.7-27.1,21.5c-10.7,7.8-22.1,14.7-33.6,21
		c-7.9,4.3-16.2,8.2-24.4,11.9C349.7,377.6,342.2,379.4,335.9,383.8z"/>
	<path class="st5" d="M152.6,651.4c-1.2-3.3-2.1-6.7-1.9-10.3c0.1-3.2-0.2-6.3-0.7-9.5c-1.2-7,0.5-14.1,0.6-21.1
		c0.1-7.9,3.6-15.7,5.4-23.5c2.2-9.6,5.9-18.6,9.7-27.7c6.2-15.1,13.8-29.4,22.7-43.1c10.2-15.7,22.2-29.8,35.8-42.5
		c12-11.2,25.1-21.3,38.9-30.4c16.4-10.8,33.8-19.9,51.6-28.2c5.4-2.5,11.2-4.1,16.5-6.8c3.6-1.9,6.6-0.8,10.1,0.7
		c12.3,5.3,24.5,10.9,36.4,17.1c11,5.8,21.7,12.2,32,19.2c12.2,8.3,23.5,17.7,34.7,27.3c11,9.5,20.3,20.4,29.3,31.5
		c6,7.4,10.9,15.8,15.7,24.2c5.5,9.5,10.6,19.2,14.9,29.1c5.8,13.5,10.5,27.6,13.3,42.2c0.7,4,1.5,7.9,2,11.9
		c1.2,9.2,0.3,18.3,0.5,27.4c0.3,12.5-3.7,24-8.8,35.2c-2.2,0.2-3.9-1.1-5.6-2.1c-18.1-10.7-37.6-16.4-58.5-18
		c-24-1.8-47,2-69.5,10.6c-9.2,3.5-18.8,5.8-28.8,6.2c-7.8,0.3-15.1-1.4-21.7-5.4c-15.3-9.1-31.7-10.3-48.8-7.2
		c-5.6,1-11.1,2.3-16.4,4.1c-3.9,1.4-7.6,1.1-11.4-0.2c-12.4-4.2-24.6-8.7-37.1-12.7c-14.3-4.6-28.8-6.4-43.7-3.2
		c-4.1,0.9-8.2,2-11.9,4C156.3,650.9,154.7,652.1,152.6,651.4z"/>
	<path d="M152.6,651.4c19.5-10.9,39.9-9.7,60.3-3.5c13.7,4.2,27.2,9.1,40.7,13.8c2,0.7,3.7,0.7,5.8,0c15.6-4.9,31.4-8.2,47.9-5.3
		c5.9,1,11.7,2.6,16.7,5.8c12.8,8.2,26.3,8.5,40.6,5c11.1-2.7,21.5-7.8,32.7-10.4c37.4-8.7,73.4-6.1,107.4,13
		c2.3,1.3,4.4,2.7,6.6,4.1c-11.8,24.9-31.7,41.4-55.5,53.7c-21.7,11.2-44.9,17.9-68.9,21.6c-46.7,7.2-92.8,4.8-138-9.4
		c-23.6-7.4-45.5-18-64.2-34.6C168.4,690.7,157.1,673,152.6,651.4z"/>
</g>
<g class="st6">
	<path class="st7" d="M258.7,67.5c-36,0-72-0.1-108,0.1c-6.5,0-11-2.2-13.5-8.2c0-1.8,0-3.7,0-5.5c0.6-5,3.3-7.7,8.3-8.3
		c120.6,0,241.2,0,361.8,0c5.6,1.4,7.5,3.3,7.9,8.2c-0.1,1.9,0.3,3.8-0.3,5.7c-1.8,5.5-5.4,8.1-11.3,8.1c-36.7,0-73.5,0-110.2,0
		c-1.4,0.5-3,0.4-4.4,0.4c-41.9,0-83.9,0-125.8,0C261.6,67.8,260.1,68,258.7,67.5z"/>
	<path class="st7" d="M137.2,658.6c2.7-6.1,7.5-8.1,14.1-8.1c34.2,0.2,68.5,0.1,102.7,0.1c1.3,0,2.5-0.1,3.8-0.2
		c44-0.8,87.9-0.1,131.9-0.4c3,0,5.9-0.1,8.9,0.4c1.3,0.1,2.5,0.2,3.8,0.2c33.6,0,67.2,0,100.7,0c6.6,0,10.6,2.8,12.1,8.5
		c0.4,1.5,0.1,3,0.2,4.5c-0.2,5.6-1.7,7.3-7.2,8.8c-121.3,0-242.6,0-363.9,0c-4.1-0.9-6.3-3.5-6.9-7.6
		C137.2,662.7,137.2,660.7,137.2,658.6z"/>
	<path class="st8" d="M514.9,53c0.2,0,0.4,0,0.7,0c0,2.1,0,4.1,0,6.2c-0.2,0-0.4,0-0.6,0.1C514.9,57.3,514.9,55.1,514.9,53z"/>
	<path class="st9" d="M515.6,664.1c-0.2,0.1-0.4,0.1-0.6,0.2c0-1.7,0-3.5,0-5.2c0.2,0.1,0.4,0.1,0.6,0.2
		C515.6,660.9,515.6,662.5,515.6,664.1z"/>
	<path class="st10" d="M258.7,649.6c-5.9-1.1-11.6-3-17.2-5.2c-4.9-1.9-9.9-3.7-14.4-6.3c-7-4-14.3-7.4-20.8-12.3
		c-5.2-3.8-10.2-7.9-14.7-12.4c-6.6-6.5-12.7-13.6-17.1-22c-2.4-4.4-4.8-8.9-6.2-13.6c-2.1-7-5.2-13.9-5.2-21.2
		c0-4.9-1.4-9.6-0.9-14.4c0.9-8.3,0.7-16.6,2.6-24.8c2.2-9.2,4.1-18.5,7.6-27.4c7.7-19.6,17.1-38.3,29.9-55.2
		c4.2-5.6,8.7-11.1,13.6-16.2c7.5-7.8,15-15.5,23.6-22c8.5-6.5,16.8-13.2,26.2-18.3c3.8-2,7.2-4.7,11.1-6.8
		c6.7-3.6,13.2-7.6,20.3-10.4c1.7-0.6,3.2-1.7,5.2-2.8c-4.2-2.4-7.9-5-12-6.6c-6.6-2.6-12.7-6.1-18.7-9.7
		c-11.6-6.8-22.6-14.4-33-22.9c-10.6-8.6-20.4-18.1-29.2-28.6c-8-9.6-15.3-19.8-21.3-30.8c-3.6-6.6-7.3-13.1-10.1-20.1
		c-1.8-4.6-4.3-9.2-5.8-14c-2.3-7.4-5.3-14.7-6.4-22.5c-0.5-3.6-1.8-7.2-2.2-10.9c-1-8.2-2.2-16.5-1.2-24.6
		c0.9-7.3,1.6-14.5,3.8-21.7c3-10.2,7-19.7,13.1-28.2c6.6-9.2,14.5-17.2,23.8-24.1c6.7-5,13.7-9.4,21-13.1
		c8.3-4.2,16.7-8.4,26.1-10.4c2.9-0.6,5.6-2.3,8.7-2.1c1.2-0.9,2.6-0.7,4-0.7c42.2,0,84.4,0,126.7,0c1.4,0,2.8-0.3,4,0.7
		c2.6-0.1,4.9,0.3,7.2,1.6c1.8,1.1,4.3,1,6.3,1.7c15.8,5.8,31,13,44.3,23.4c10,7.8,18.9,16.9,25.2,28c4.8,8.4,8.3,17.3,10.7,26.8
		c2.5,10.3,3.1,20.5,2.8,30.8c-0.2,6.2-0.9,12.4-2.7,18.5c-1.2,3.8-1.1,8.1-2.3,12c-4.2,13.5-8.8,26.8-15.5,39.3
		c-8.6,16.1-18.2,31.4-30.6,45c-9.2,10-19,19.2-29.7,27.5c-13.5,10.6-28,19.8-43.3,27.5c-5.1,2.6-10,5.7-16.1,7.6
		c2,1.3,3.2,2.5,4.7,3.1c15.6,6.2,29.6,15,43.3,24.4c11.9,8.2,23.1,17.4,33.3,27.8c7.6,7.8,15,15.8,21.3,24.7
		c5.5,7.8,10.5,15.9,14.9,24.4c3.1,6,6.3,12,8.9,18.2c2.5,6,4.7,12.2,6.8,18.4c2.2,6.4,3.5,13,5,19.5c1.5,6.6,3,13.3,1.8,20.3
		c-0.7,4.4-0.4,9.1,0.3,13.7c0.7,4.7-0.4,9.4-1.9,13.8c-1.4,4.2-1.7,8.7-3.4,12.8c-6,14.7-14.1,27.9-26.1,38.4
		c-5.9,5.2-12.3,9.7-19.1,13.9c-5.9,3.6-11.8,7-18.1,9.7c-7.7,3.2-15.5,6.7-23.8,8.3c-1.4,0.7-2.9,0.7-4.4,0.7
		c-43.2,0-86.5,0-129.7,0C261.8,650.3,260.2,650,258.7,649.6z"/>
	<path class="st11" d="M258.7,649.6c1.8-0.9,3.5,0.1,5.3,0.1c42.7-0.1,85.5-0.1,128.2,0c1.8,0,3.5-1,5.3-0.1
		c0.3,0.3,0.6,0.5,0.9,0.8c-2.5,0.8-5,0.3-7.5,0.3c-43.3,0.1-86.6,0.1-129.8,0.1c-1.1,0-2.3-0.3-3.4-0.4
		C258,650.1,259,650.7,258.7,649.6z"/>
	<path class="st12" d="M393.3,68.2c-44.9,0-89.8,0-134.6,0c0-0.3,0-0.5,0-0.8c0.9-0.1,1.8-0.3,2.7-0.3c43.1,0,86.2,0,129.3,0
		c0.9,0,1.8,0.2,2.7,0.3C393.4,67.7,393.4,68,393.3,68.2z"/>
	<path class="st13" d="M180.4,190.9c-0.6-5.6-1.3-11.7-1.1-17.9c0.3-12.5,2.6-24.4,8.2-35.8c4.4-8.8,10.5-16.2,17.2-23.1
		c3.1-3.1,7-5.9,10.8-8.5c8.9-5.8,18.1-10.8,28-14.8c5.6-2.3,11.2-4.4,16.9-6.1c9.5-2.9,19.3-4.6,29.2-6.2c2.8-0.5,5.8-1.5,8.6-1.7
		c4.6-0.3,9.3-0.4,13.9-0.5c6.4-0.1,12.8-0.6,19.2-0.4c5.5,0.1,11,0.2,16.4,0.4c5.3,0.2,10.8,1.3,16.1,2.5c3.8,0.8,7.7,1.5,11.7,1.7
		c3.6,0.2,7.2,2.2,10.8,3.1c13.2,3.2,25.6,8.2,37.6,14.6c7.5,4,14.5,8.8,21,14.5c7.2,6.2,13.2,13.5,18,21.6
		c2.6,4.5,5.4,9.3,6.2,14.8c0.7,5,2.5,9.6,3.2,14.7c0.9,6.2,0.3,12.4,0.5,18.5c0.3,6.5-2.5,13.1-3.7,19.7c-1.8,9.6-5.5,18.6-9,27.5
		c-3.8,9.6-9.3,18.6-14.4,27.6c-9.2,16.1-21.7,29.6-35.2,42c-6.7,6.2-14.1,11.6-21.5,17.1c-8.5,6.2-17.5,11.6-26.6,16.6
		c-6.2,3.4-12.8,6.5-19.3,9.4c-5.4,2.5-11.4,3.9-16.4,7.4c-0.5,0.4-1,0.4-1.6,0c-4.3-3.5-9.8-4.4-14.7-6.6c-6.2-2.8-12.2-5.8-18.2-9
		c-8-4.3-16.2-8.4-23.6-13.6c-14.8-10.4-29-21.7-41.3-35.1c-3.7-4-7.8-7.9-10.8-12.1c-5.9-8.5-11.3-17.4-16.3-26.5
		c-4.3-7.8-8-15.9-11.3-24.1c-2.8-6.7-5-13.9-6.2-21.2C182.2,198,180.3,194.9,180.4,190.9z"/>
	<path class="st13" d="M181.5,561.5c-1-2.6-1.7-5.3-1.5-8.2c0.1-2.5-0.1-5-0.6-7.5c-1-5.6,0.4-11.2,0.5-16.7
		c0.1-6.2,2.8-12.4,4.3-18.6c1.7-7.6,4.7-14.8,7.7-21.9c4.9-11.9,10.9-23.3,18-34.2c8.1-12.4,17.6-23.6,28.4-33.7
		c9.5-8.9,19.9-16.9,30.8-24.1c13-8.6,26.8-15.7,40.9-22.4c4.3-2,8.9-3.2,13.1-5.4c2.9-1.5,5.3-0.7,8,0.5
		c9.8,4.2,19.4,8.6,28.9,13.5c8.7,4.6,17.2,9.7,25.4,15.2c9.7,6.6,18.6,14,27.5,21.6c8.7,7.5,16.1,16.2,23.2,25
		c4.7,5.8,8.6,12.5,12.5,19.2c4.4,7.5,8.4,15.2,11.8,23.1c4.6,10.7,8.3,21.8,10.5,33.4c0.6,3.1,1.2,6.3,1.6,9.4
		c1,7.3,0.2,14.5,0.4,21.7c0.3,9.9-2.9,19-7,27.9c-1.7,0.2-3.1-0.8-4.4-1.7c-14.3-8.5-29.8-13-46.3-14.3c-19-1.4-37.3,1.6-55,8.4
		c-7.3,2.8-14.9,4.6-22.8,4.9c-6.2,0.2-11.9-1.1-17.2-4.2c-12.1-7.2-25.1-8.1-38.7-5.7c-4.4,0.8-8.8,1.8-13,3.3
		c-3.1,1.1-6,0.9-9.1-0.1c-9.8-3.3-19.5-6.9-29.4-10c-11.3-3.6-22.8-5.1-34.7-2.6c-3.3,0.7-6.5,1.6-9.5,3.1
		C184.4,561.1,183.1,562.1,181.5,561.5z"/>
	<path class="st7" d="M181.5,561.5c15.5-8.7,31.6-7.7,47.8-2.8c10.9,3.3,21.5,7.2,32.3,10.9c1.6,0.6,3,0.5,4.6,0
		c12.4-3.9,24.9-6.5,38-4.2c4.7,0.8,9.3,2.1,13.2,4.6c10.1,6.5,20.9,6.7,32.1,3.9c8.8-2.2,17-6.2,25.9-8.2
		c29.6-6.9,58.1-4.8,85.1,10.3c1.8,1,3.5,2.2,5.3,3.3c-9.3,19.7-25.1,32.8-44,42.5c-17.2,8.9-35.6,14.2-54.6,17.1
		c-37,5.7-73.5,3.8-109.3-7.5c-18.7-5.9-36.1-14.2-50.8-27.4C194,592.7,185.1,578.7,181.5,561.5z"/>
</g>
</svg>
